# xmcd
#
# Track frame offsets:
#	150
#	17992
#	37796
#	52398
#	66843
#	77560
#	101129
#
# Disc length: 1718 seconds
#
# Revision: 0
# Processed by: cddbd v1.5.2PL0 Copyright (c) Steve Scherf et al.
# Submitted via: EasyCDDAExtractor 10.5.1.1
#
DISCID=5906b407
DTITLE=Mark Kozelek - Rock'n'Roll Singer
DYEAR=1900
DGENRE=
TTITLE0=Find Me, Ruben Olivares
TTITLE1=Rock'n'Roll Singer
TTITLE2=You Ain't Got A Hold On ME
TTITLE3=Metropol
TTITLE4=Around And Around
TTITLE5=Bad Boy Boogie
TTITLE6=Ruth Marie
EXTD=
EXTT0=
EXTT1=
EXTT2=
EXTT3=
EXTT4=
EXTT5=
EXTT6=
PLAYORDER=
